<?xml version="1.0" ?>
<!DOCTYPE svg  PUBLIC '-//W3C//DTD SVG 1.1//EN'  'http://www.w3.org/Graphics/SVG/1.1/DTD/svg11.dtd'>
<!-- Uploaded to: SVG Repo, www.svgrepo.com, Generator: SVG Repo Mixer Tools -->
<svg fill="#000000" width="800px" height="800px" viewBox="0 0 64 64" enable-background="new 0 0 64 64" id="Layer_1" version="1.1" xml:space="preserve" xmlns="http://www.w3.org/2000/svg" xmlns:xlink="http://www.w3.org/1999/xlink">
<g>
<g>
<path d="M32.042,21.613c-0.27,0-0.538-0.108-0.735-0.321c-0.375-0.406-0.349-1.039,0.057-1.413    c3.078-2.844,9.794-2.482,12.819-0.854c0.486,0.262,0.668,0.868,0.406,1.354c-0.262,0.487-0.869,0.669-1.354,0.407    c-2.413-1.3-8.205-1.569-10.515,0.562C32.527,21.525,32.284,21.613,32.042,21.613z"/>
</g>
</g>
<g>
<g>
<path d="M32.041,21.613c-0.242,0-0.485-0.088-0.678-0.266c-2.31-2.132-8.102-1.861-10.514-0.562    c-0.489,0.261-1.093,0.079-1.354-0.407s-0.08-1.093,0.406-1.354c3.025-1.629,9.741-1.988,12.819,0.854    c0.406,0.374,0.431,1.007,0.057,1.413C32.579,21.505,32.311,21.613,32.041,21.613z"/>
</g>
</g>
<g>
<g>
<path d="M15.752,46.229c-0.331,0-0.654-0.163-0.844-0.463c-0.297-0.466-0.16-1.084,0.306-1.381    c4.372-2.784,14.249-2.345,17.391,0.048c0.439,0.334,0.525,0.962,0.19,1.401c-0.335,0.439-0.96,0.525-1.401,0.19    c-2.541-1.933-11.542-2.222-15.106,0.048C16.122,46.178,15.936,46.229,15.752,46.229z"/>
</g>
</g>
<g>
<g>
<path d="M15.732,25.021c-0.356,0-0.701-0.19-0.881-0.525c-0.262-0.486-0.08-1.093,0.406-1.355c1.241-0.668,3.08-1.115,5.044-1.226    c0.563-0.035,1.024,0.39,1.055,0.941s-0.391,1.023-0.942,1.055c-1.658,0.094-3.232,0.465-4.209,0.991    C16.054,24.983,15.892,25.021,15.732,25.021z"/>
</g>
</g>
<g>
<g>
<path d="M32.042,41.708c-0.27,0-0.538-0.108-0.735-0.321c-0.375-0.406-0.349-1.039,0.057-1.413    c3.079-2.843,9.795-2.482,12.819-0.854c0.486,0.263,0.668,0.869,0.406,1.355c-0.262,0.485-0.869,0.667-1.354,0.406    c-2.413-1.3-8.204-1.569-10.515,0.562C32.527,41.62,32.284,41.708,32.042,41.708z"/>
</g>
</g>
<g>
<g>
<path d="M32.041,41.708c-0.242,0-0.485-0.088-0.678-0.266c-2.311-2.132-8.101-1.861-10.514-0.562    c-0.486,0.261-1.092,0.079-1.354-0.406c-0.262-0.486-0.08-1.093,0.406-1.355c3.025-1.629,9.74-1.988,12.819,0.854    c0.406,0.374,0.431,1.007,0.057,1.413C32.579,41.6,32.311,41.708,32.041,41.708z"/>
</g>
</g>
<g>
<path d="M32,46.229c-0.552,0-1-0.447-1-1V20.53c0-0.553,0.448-1,1-1s1,0.447,1,1v24.698C33,45.781,32.552,46.229,32,46.229z"/>
</g>
<g>
<path d="M43.75,40.863c-0.552,0-1-0.447-1-1c0-3.975-0.012-8.075-0.024-11.785c-0.009-3.068-0.018-5.87-0.018-8.114   c0-0.553,0.448-1,1-1s1,0.447,1,1c0,2.242,0.008,5.042,0.018,8.107c0.012,3.713,0.024,7.815,0.024,11.792   C44.75,40.416,44.302,40.863,43.75,40.863z"/>
</g>
<g>
<path d="M20.396,40.863c-0.552,0-1-0.447-1-1c0-3.975-0.013-8.075-0.024-11.785c-0.009-3.068-0.018-5.87-0.018-8.114   c0-0.553,0.448-1,1-1s1,0.447,1,1c0,2.242,0.009,5.042,0.018,8.107c0.011,3.713,0.024,7.815,0.024,11.792   C21.396,40.416,20.948,40.863,20.396,40.863z"/>
</g>
<g>
<path d="M15.751,46.229c-0.552,0-1-0.447-1-1c0-3.975-0.012-8.422-0.024-12.446c-0.009-3.328-0.018-6.366-0.018-8.61   c0-0.553,0.448-1,1-1s1,0.447,1,1c0,2.242,0.008,5.279,0.018,8.604c0.012,4.026,0.024,8.476,0.024,12.452   C16.751,45.781,16.304,46.229,15.751,46.229z"/>
</g>
<g>
<g>
<path d="M48.248,46.229c-0.184,0-0.37-0.051-0.536-0.156c-3.564-2.27-12.565-1.98-15.106-0.048    c-0.439,0.335-1.067,0.249-1.401-0.19s-0.249-1.067,0.19-1.401c3.143-2.391,13.017-2.833,17.391-0.048    c0.466,0.297,0.603,0.915,0.306,1.381C48.901,46.065,48.578,46.229,48.248,46.229z"/>
</g>
</g>
<g>
<path d="M48.249,46.229c-0.552,0-1-0.447-1-1c0-3.977,0.012-8.426,0.024-12.452c0.009-3.325,0.018-6.362,0.018-8.604   c0-0.553,0.448-1,1-1s1,0.447,1,1c0,2.244-0.008,5.282-0.018,8.61c-0.012,4.024-0.024,8.472-0.024,12.446   C49.249,45.781,48.801,46.229,48.249,46.229z"/>
</g>
<g>
<g>
<path d="M48.268,25.172c-0.16,0-0.322-0.038-0.473-0.119c-0.912-0.492-2.38-0.855-3.927-0.973    c-0.551-0.042-0.963-0.522-0.921-1.073c0.042-0.551,0.514-0.97,1.073-0.921c1.839,0.14,3.561,0.579,4.724,1.205    c0.486,0.263,0.668,0.869,0.406,1.355C48.969,24.981,48.624,25.172,48.268,25.172z"/>
</g>
</g>
<g>
<path d="M36.25,25.26c-0.395,0-0.768-0.234-0.926-0.622c-0.209-0.512,0.037-1.095,0.548-1.304c1.081-0.44,2.588-0.466,3.749-0.061   c0.521,0.183,0.796,0.752,0.615,1.273c-0.182,0.522-0.752,0.798-1.274,0.615c-0.7-0.245-1.704-0.233-2.334,0.023   C36.504,25.236,36.376,25.26,36.25,25.26z"/>
</g>
<g>
<path d="M36.25,29.278c-0.395,0-0.768-0.234-0.926-0.622c-0.209-0.512,0.037-1.095,0.548-1.304c1.08-0.44,2.586-0.464,3.749-0.06   c0.521,0.183,0.796,0.752,0.615,1.273c-0.182,0.522-0.752,0.798-1.274,0.615c-0.701-0.244-1.704-0.235-2.334,0.022   C36.504,29.255,36.376,29.278,36.25,29.278z"/>
</g>
<g>
<path d="M36.25,33.641c-0.395,0-0.768-0.234-0.926-0.622c-0.209-0.512,0.037-1.095,0.548-1.304c1.08-0.441,2.586-0.465,3.749-0.06   c0.521,0.183,0.796,0.752,0.615,1.273c-0.182,0.522-0.752,0.797-1.274,0.615c-0.701-0.244-1.704-0.234-2.334,0.022   C36.504,33.617,36.376,33.641,36.25,33.641z"/>
</g>
<g>
<path d="M24.688,25.225c-0.395,0-0.768-0.234-0.926-0.622c-0.209-0.512,0.037-1.095,0.548-1.304   c1.081-0.44,2.588-0.466,3.749-0.061c0.521,0.183,0.796,0.752,0.615,1.273c-0.182,0.522-0.75,0.798-1.274,0.615   c-0.699-0.244-1.703-0.233-2.334,0.023C24.942,25.201,24.813,25.225,24.688,25.225z"/>
</g>
<g>
<path d="M24.688,29.244c-0.395,0-0.768-0.234-0.926-0.622c-0.209-0.512,0.037-1.095,0.548-1.304   c1.081-0.441,2.588-0.466,3.749-0.061c0.521,0.183,0.796,0.752,0.615,1.273c-0.182,0.522-0.75,0.799-1.274,0.615   c-0.699-0.245-1.703-0.233-2.334,0.023C24.942,29.221,24.813,29.244,24.688,29.244z"/>
</g>
<g>
<path d="M24.688,33.605c-0.395,0-0.768-0.234-0.926-0.622c-0.209-0.512,0.037-1.095,0.548-1.304c1.08-0.44,2.586-0.465,3.749-0.06   c0.521,0.183,0.796,0.752,0.615,1.273c-0.182,0.522-0.75,0.797-1.274,0.615c-0.7-0.244-1.704-0.234-2.334,0.022   C24.942,33.582,24.813,33.605,24.688,33.605z"/>
</g>
</svg>