 <svg
    height="40px"
    width="40px"
    version="1.1"
    id="Layer_1"
    xmlns="http://www.w3.org/2000/svg"
    xmlnsXlink="http://www.w3.org/1999/xlink"
    viewBox="0 0 511.872 511.872"
    xmlSpace="preserve"
  >
    <g>
      <g>
        <path
          style={{ fill: '#996459' }}
          d="M436.452,358.027l-75.047-14.023c-0.484-0.086-0.977-0.133-1.469-0.133h-208
          c-0.492,0-0.984,0.047-1.469,0.133l-75.726,14.187c-38.609,10.813-58.805,48.844-58.805,80.828v43.836
          c0,16,14.352,29.016,32,29.016h416c17.648,0,32-13.016,32-29.016v-43.836C495.936,407.035,475.741,369.004,436.452,358.027z"
        />
      </g>
      <g>
        <path
          style={{ fill: '#4BB9EC' }}
          d="M294.712,511.871l-14.885-89.312c-0.641-3.859-3.977-6.688-7.891-6.688h-32
          c-3.914,0-7.25,2.828-7.891,6.688l-14.885,89.312L294.712,511.871L294.712,511.871z"
        />
      </g>
      <g>
        <path
          style={{ fill: '#009BCA' }}
          d="M239.936,415.871c-2.044,0-3.903,0.799-5.331,2.086l53.346,53.351l-4.525-27.151l-28.283-28.286
          H239.936z"
        />
      </g>
      <g>
        <path
          style={{ fill: '#3482AC' }}
          d="M287.882,376.019c-0.008-4.414-3.586-7.984-8-7.984h-40c-3.031,0-5.797,1.711-7.156,4.422l-8,16
          c-0.563,1.117-0.852,2.352-0.844,3.609l0.055,15.812c0,13.227,10.766,23.992,24,23.992h16c13.234,0,24-10.766,24-24.016
          L287.882,376.019z"
        />
      </g>
      <g>
        <path
          style={{ fill: '#B4B6BC' }}
          d="M259.78,345.051l-71.945-40.164c-3.492-1.961-7.883-1.008-10.281,2.164l-30.195,40
          c-2.063,2.734-2.164,6.477-0.242,9.305l48.773,71.992c2.688,3.961,6.961,6.492,11.719,6.945c0.516,0.047,1.031,0.07,1.539,0.07
          c4.219,0,8.266-1.656,11.289-4.672c0.203-0.203,0.398-0.422,0.578-0.648l33.148-41.156c0.359-0.438,0.672-0.922,0.922-1.43
          l7.945-15.836c0.563-1.109,0.852-2.344,0.852-3.586v-16C263.882,349.137,262.311,346.465,259.78,345.051z"
        />
      </g>
      <g>
        <path
          style={{ fill: '#B4B6BC' }}
          d="M251.983,345.051l71.945-40.164c3.492-1.961,7.883-1.008,10.281,2.164l30.195,40
          c2.063,2.734,2.164,6.477,0.242,9.305l-48.773,71.992c-2.688,3.961-6.961,6.492-11.719,6.945c-0.516,0.047-1.031,0.07-1.539,0.07
          c-4.219,0-8.266-1.656-11.289-4.672c-0.203-0.203-0.398-0.422-0.578-0.648l-33.147-41.156c-0.359-0.438-0.672-0.922-0.922-1.43
          l-7.945-15.836c-0.563-1.109-0.852-2.344-0.852-3.586v-16C247.882,349.137,249.452,346.465,251.983,345.051z"
        />
      </g>
      <g>
        <path
          style={{ fill: '#FFDCAD' }}
          d="M367.882,152.035l-15.781-16c0,0-54.219-14.667-168.219,0l-48,16c0,11,0,17.55,0,56
          c0,79.529,53.726,144,120,144s120-64.471,120-144c0-12.906,0-37.5,0-56C373.811,154.349,367.882,152.035,367.882,152.035z"
        />
      </g>
      <g>
        <circle style={{ fill: '#AEEFFF' }} cx="207.717" cy="208.035" r="32" />
      </g>
      <g>
        <path
          style={{ fill: '#FFFFFF' }}
          d="M207.936,176.035c-8.78,0-16.726,3.547-22.507,9.273l45.234,45.234
          c5.727-5.782,9.273-13.727,9.273-22.507C239.936,190.362,225.61,176.035,207.936,176.035z"
        />
      </g>
      <g>
        <circle style={{ fill: '#AEEFFF' }} cx="303.717" cy="208.035" r="32" />
      </g>
      <g>
        <path
          style={{ fill: '#FFFFFF' }}
          d="M303.936,176.035c-8.78,0-16.726,3.547-22.507,9.273l45.234,45.234
          c5.727-5.782,9.273-13.727,9.273-22.507C335.936,190.362,321.61,176.035,303.936,176.035z"
        />
      </g>
      <g>
        <g>
          <path
            style={{ fill: '#5C546A' }}
            d="M272.101,216.035c-4.422,0-8-3.578-8-8c0-4.414-3.586-8-8-8s-8,3.586-8,8c0,4.422-3.578,8-8,8
            s-8-3.578-8-8c0-13.234,10.766-24,24-24c13.234,0,24,10.766,24,24C280.101,212.457,276.522,216.035,272.101,216.035z"
          />
        </g>
      </g>
      <g>
        <g>
          <path
            style={{ fill: '#5C546A' }}
            d="M176.101,208.035h-40.219c-4.422,0-8-3.578-8-8s3.578-8,8-8h40.219c4.422,0,8,3.578,8,8
            S180.523,208.035,176.101,208.035z"
          />
        </g>
      </g>
      <g>
        <g>
          <path
            style={{ fill: '#5C546A' }}
            d="M375.882,208.035h-40.219c-4.422,0-8-3.578-8-8s3.578-8,8-8h40.219c4.422,0,8,3.578,8,8
            S380.304,208.035,375.882,208.035z"
          />
        </g>
      </g>
      <g>
        <path
          style={{ fill: '#DBD7DB' }}
          d="M207.717,256.035c0,0-40,24,48,24s48-24,48-24s-40,40-48,40S207.717,256.035,207.717,256.035z"
        />
      </g>
    </g>
  </svg>